# xmcd
#
# Track frame offsets:
#	150
#	15165
#	29727
#	45887
#	65265
#	80767
#	96420
#	110992
#	128872
#	143292
#
# Disc length: 2126 seconds
#
# Revision: 1
# Processed by: cddbd v1.5.2PL0 Copyright (c) Steve Scherf et al.
# Submitted via: audiograbber 1.83.01
#
DISCID=7e084c0a
DTITLE=Yolandita Monge - Estilo Y Personalidad De Yolandita Monge
DYEAR=1979
DGENRE=Latin
TTITLE0=Vida (My Great Love)
TTITLE1=Dos Caminos Diferentes (Two Different Ways)
TTITLE2=Estoy Celosa (I'm Jealous)
TTITLE3=Amor Mio (My Love)
TTITLE4=No Te Odiare (I'll Not Hate You)
TTITLE5=Todo Aquello (All Of That)
TTITLE6=Me Pasa Lo Mismo (I Feel The Same)
TTITLE7=Tu No Crees Mas (You Believe No More)
TTITLE8=Porque Diste Vuelta La Cara (Why Turn Your Face)
TTITLE9=Yo Se Muy Bien Que Me Quieres (I Do Know You Love Me)
EXTD=
EXTT0=
EXTT1=
EXTT2=
EXTT3=
EXTT4=
EXTT5=
EXTT6=
EXTT7=
EXTT8=
EXTT9=
PLAYORDER=
